<svg width="56" height="38" viewBox="0 0 56 38" fill="none" xmlns="http://www.w3.org/2000/svg">
<g clip-path="url(#clip0_1_131)">
<path d="M35.4255 13.9475H52.7512C52.8889 13.9475 53 13.8362 53 13.6983C53 6.14479 46.8654 0 39.3261 0C36.9313 0 34.5763 0.629596 32.5132 1.81902C29.4534 3.58321 27.2178 6.4139 26.2161 9.78946C26.1763 9.9207 26.2526 10.0602 26.3836 10.1001C26.5163 10.1383 26.6539 10.0636 26.6937 9.93233C27.659 6.67969 29.8133 3.952 32.762 2.25093C34.7505 1.1047 37.0192 0.498361 39.3278 0.498361C46.5089 0.498361 52.3681 6.28433 52.5008 13.4491H35.4255C35.2878 13.4491 35.1767 13.5604 35.1767 13.6983C35.1767 13.8362 35.2878 13.9475 35.4255 13.9475Z" fill="#BFAF6A"/>
<path d="M49.5833 13.9474C49.7209 13.9474 49.832 13.8361 49.832 13.6982C49.832 7.89565 45.1187 3.17285 39.3241 3.17285C34.8264 3.17285 30.8279 6.03676 29.3768 10.2977C29.332 10.4273 29.4017 10.5702 29.5327 10.6134C29.6637 10.6582 29.8047 10.5885 29.8478 10.4589C31.2309 6.39891 35.0387 3.67121 39.3241 3.67121C44.8434 3.67121 49.3345 8.16975 49.3345 13.6982C49.3345 13.8361 49.4456 13.9474 49.5833 13.9474Z" fill="#BFAF6A"/>
<path d="M46.4044 13.9475C46.542 13.9475 46.6531 13.8362 46.6531 13.6983C46.6531 9.64992 43.3661 6.35742 39.3245 6.35742C36.0955 6.35742 33.2844 8.4306 32.3258 11.5155C32.2844 11.6467 32.359 11.7862 32.49 11.8278C32.621 11.8693 32.7603 11.7945 32.8018 11.6633C33.694 8.78776 36.3161 6.85578 39.3261 6.85578C43.0925 6.85578 46.1573 9.92568 46.1573 13.6983C46.1573 13.8362 46.2684 13.9475 46.406 13.9475H46.4044Z" fill="#BFAF6A"/>
<path d="M35.4255 13.9475C35.5631 13.9475 35.6742 13.8362 35.6742 13.6983C35.6742 11.6816 37.3128 10.0404 39.3261 10.0404C41.3395 10.0404 42.978 11.6816 42.978 13.6983C42.978 13.8362 43.0891 13.9475 43.2268 13.9475C43.3644 13.9475 43.4756 13.8362 43.4756 13.6983C43.4756 11.4059 41.6148 9.54199 39.3261 9.54199C37.0375 9.54199 35.1767 11.4059 35.1767 13.6983C35.1767 13.8362 35.2878 13.9475 35.4255 13.9475Z" fill="#BFAF6A"/>
<path d="M12.4736 23.5559H39.3255C39.4631 23.5559 39.5742 23.4446 39.5742 23.3067C39.5742 15.7532 33.4396 9.61011 25.9003 9.61011C18.3611 9.61011 12.2248 15.7549 12.2248 23.3067C12.2248 23.4446 12.3359 23.5559 12.4736 23.5559ZM39.0734 23.0575H12.724C12.8567 15.8944 18.716 10.1085 25.8987 10.1085C33.0814 10.1085 38.9407 15.8944 39.0734 23.0575Z" fill="#BFAF6A"/>
<path d="M15.6392 23.5559C15.7769 23.5559 15.888 23.4446 15.888 23.3067C15.888 17.7783 20.379 13.2797 25.8984 13.2797C31.4177 13.2797 35.9087 17.7783 35.9087 23.3067C35.9087 23.4446 36.0198 23.5559 36.1575 23.5559C36.2951 23.5559 36.4063 23.4446 36.4063 23.3067C36.4063 17.5042 31.693 12.7814 25.8984 12.7814C20.1037 12.7814 15.3904 17.5025 15.3904 23.3067C15.3904 23.4446 15.5016 23.5559 15.6392 23.5559Z" fill="#BFAF6A"/>
<path d="M18.8188 23.5559C18.9564 23.5559 19.0675 23.4446 19.0675 23.3067C19.0675 19.5341 22.1324 16.4642 25.8987 16.4642C29.665 16.4642 32.7298 19.5341 32.7298 23.3067C32.7298 23.4446 32.8409 23.5559 32.9786 23.5559C33.1162 23.5559 33.2274 23.4446 33.2274 23.3067C33.2274 19.2583 29.9403 15.9658 25.8987 15.9658C21.8571 15.9658 18.57 19.2583 18.57 23.3067C18.57 23.4446 18.6811 23.5559 18.8188 23.5559Z" fill="#BFAF6A"/>
<path d="M21.9978 23.5559C22.1354 23.5559 22.2465 23.4446 22.2465 23.3067C22.2465 21.29 23.8851 19.6488 25.8984 19.6488C27.9118 19.6488 29.5503 21.29 29.5503 23.3067C29.5503 23.4446 29.6614 23.5559 29.7991 23.5559C29.9368 23.5559 30.0479 23.4446 30.0479 23.3067C30.0479 21.0143 28.1871 19.1504 25.8984 19.1504C23.6098 19.1504 21.749 21.0143 21.749 23.3067C21.749 23.4446 21.8601 23.5559 21.9978 23.5559Z" fill="#BFAF6A"/>
<path d="M-35.8999 38.0001H-1.20525C-0.074192 38.0001 0.846245 37.0781 0.846245 35.9452C0.846245 34.8122 -0.074192 33.8903 -1.20525 33.8903H-26.412C-27.2694 33.8903 -27.9659 33.1926 -27.9659 32.3337C-27.9659 31.4749 -27.2694 30.7772 -26.412 30.7772H-16.06C-14.9289 30.7772 -14.0085 29.8552 -14.0085 28.7223C-14.0085 27.5893 -14.9289 26.6674 -16.06 26.6674H-19.5477C-20.4051 26.6674 -21.1016 25.9697 -21.1016 25.1108C-21.1016 24.252 -20.4051 23.5543 -19.5477 23.5543H12.472C12.6096 23.5543 12.7207 23.443 12.7207 23.3051C12.7207 23.1672 12.6096 23.0559 12.472 23.0559H-19.5477C-20.6787 23.0559 -21.5992 23.9779 -21.5992 25.1108C-21.5992 26.2438 -20.6787 27.1657 -19.5477 27.1657H-16.06C-15.2025 27.1657 -14.506 27.8634 -14.506 28.7223C-14.506 29.5811 -15.2025 30.2788 -16.06 30.2788H-26.412C-27.543 30.2788 -28.4635 31.2008 -28.4635 32.3337C-28.4635 33.4667 -27.543 34.3886 -26.412 34.3886H-1.20525C-0.347836 34.3886 0.348711 35.0863 0.348711 35.9452C0.348711 36.804 -0.347836 37.5017 -1.20525 37.5017H-35.8999C-36.0376 37.5017 -36.1487 37.613 -36.1487 37.7509C-36.1487 37.8888 -36.0376 38.0001 -35.8999 38.0001Z" fill="#BFAF6A"/>
</g>
<defs>
<clipPath id="clip0_1_131">
<rect width="56" height="38" fill="white" transform="matrix(-1 0 0 1 56 0)"/>
</clipPath>
</defs>
</svg>
